<?xml version="1.0" encoding="UTF-8" standalone="no"?>
<!-- Created with Inkscape (http://www.inkscape.org/) -->
<svg id="svg32130" xmlns:rdf="http://www.w3.org/1999/02/22-rdf-syntax-ns#" xmlns="http://www.w3.org/2000/svg" height="24" width="24" version="1.1" xmlns:cc="http://creativecommons.org/ns#" xmlns:dc="http://purl.org/dc/elements/1.1/">
 <metadata id="metadata32135">
  <rdf:RDF>
   <cc:Work rdf:about="">
    <dc:format>image/svg+xml</dc:format>
    <dc:type rdf:resource="http://purl.org/dc/dcmitype/StillImage"/>
    <dc:title/>
   </cc:Work>
  </rdf:RDF>
 </metadata>
 <g id="layer1" fill-rule="nonzero" transform="translate(0,-1028.3622)" fill="#231f20">
  <path id="path3832" d="m12,1029.2c-6.1597,0-11.171,5.0488-11.171,11.173,0,6.1641,5.0112,11.169,11.171,11.169,6.1613,0,11.173-5.0045,11.173-11.169,0-6.1238-5.0112-11.173-11.173-11.173zm0,23.171c-6.6155,0-12-5.4-12-12,0-6.623,5.3845-12.002,12-12.002,6.6175,0,12,5.379,12,12.002,0,6.619-5.3825,11.998-12,11.998"/>
  <path id="path3834" d="m7.4494,1045.3c-0.10671,0-0.21221-0.04-0.29234-0.1248-0.16187-0.1248-0.16187-0.4147,0-0.5798l8.6888-8.6885c0.16187-0.165,0.4232-0.165,0.58508,0,0.16187,0.1651,0.16187,0.455,0,0.5798l-8.6888,8.6885c-0.081744,0.084-0.18724,0.1248-0.29274,0.1248"/>
  <path id="path3836" d="m16.552,1045.3c-0.1055,0-0.211-0.04-0.29274-0.1248l-8.6888-8.6885c-0.16187-0.1248-0.16187-0.4147,0-0.5798,0.16066-0.165,0.42321-0.165,0.58508,0l8.6888,8.6885c0.16228,0.1651,0.16228,0.455,0,0.5798-0.08013,0.084-0.18684,0.1248-0.29234,0.1248"/>
 </g>
</svg>
