<?xml version="1.0" encoding="UTF-8" standalone="no"?>
<!-- Created with Inkscape (http://www.inkscape.org/) -->
<svg id="svg31573" xmlns:rdf="http://www.w3.org/1999/02/22-rdf-syntax-ns#" xmlns="http://www.w3.org/2000/svg" height="24" width="24" version="1.1" xmlns:cc="http://creativecommons.org/ns#" xmlns:dc="http://purl.org/dc/elements/1.1/">
 <metadata id="metadata31578">
  <rdf:RDF>
   <cc:Work rdf:about="">
    <dc:format>image/svg+xml</dc:format>
    <dc:type rdf:resource="http://purl.org/dc/dcmitype/StillImage"/>
    <dc:title/>
   </cc:Work>
  </rdf:RDF>
 </metadata>
 <g id="layer1" transform="translate(0,-1028.3622)">
  <g id="g31598" fill-rule="nonzero" fill="#231f20" transform="matrix(0.31998244,0,0,0.31998244,-107.99341,871.61722)">
   <path id="path11577" d="m342.5,549.86,7.492,0,0-12.505,1.2529,0c0.27978,0,0.69337,0,0.9853-1.0826,0.26762-1.0096,0.26762-2.3964,0.26762-3.625v-7.7851h-12.498v7.7851c-0.005,1.5084-0.005,3.8075,0.69336,4.513,0.0997,0.0975,0.23843,0.19462,0.55592,0.19462h1.2505v12.505zm9.9978,2.4936-12.498,0,0-12.724c-0.40385-0.15812-0.76512-0.38925-1.0741-0.69337-1.4342-1.4354-1.4293-4.148-1.4256-6.3011v-10.279h17.503v10.291c0,1.3746,0,2.9316-0.35278,4.2575-0.43791,1.6544-1.3259,2.4086-2.1531,2.7249v12.724"/>
   <path id="path11579" d="m400,549.86,7.5054,0,0-13.746,1.2529,0c0.34063-0.11,1.2408-1.557,1.2408-3.7588v-7.4932h-12.493v7.4932c0,2.5424,0.94888,3.7222,1.2408,3.7588l1.1435,0.0975,0.11,1.1434v12.505zm9.999,2.4936-12.493,0,0-14.062c-1.5084-0.80275-2.5058-3.0654-2.5058-5.9361v-9.999h17.504v9.999c0,2.4815-0.91238,5.0239-2.5059,5.9119v14.086"/>
   <path id="path11581" d="m370,562.35,9.999,0,0-17.492,1.2529,0c3.2601,0,3.7466-3.1384,3.7466-4.9995v-14.999h-19.998v14.999c0,1.8611,0.48658,4.9995,3.7466,4.9995h1.2529v17.492zm12.493,2.5058-14.999,0,0-17.614c-3.114-0.55963-4.9995-3.2844-4.9995-7.3838v-17.504h25.01v17.504c0,4.0994-1.8976,6.8241-5.0116,7.3838v17.614"/>
   <path id="path11583" d="m403.74,509.85c-2.0558,0-3.7465,1.6786-3.7465,3.7588,0,2.0558,1.6908,3.7466,3.7465,3.7466,2.068,0,3.7589-1.6909,3.7589-3.7466,0-2.0801-1.6909-3.7588-3.7589-3.7588zm0,10.011c-3.4424,0-6.2402-2.8221-6.2402-6.2524,0-3.4546,2.7979-6.2525,6.2402-6.2525,3.4548,0,6.2525,2.7979,6.2525,6.2525,0,3.4302-2.7978,6.2524-6.2525,6.2524"/>
   <path id="path11585" d="m346.25,509.85c-2.0667,0-3.749,1.6786-3.749,3.7588,0,2.0558,1.6823,3.7466,3.749,3.7466,2.0764,0,3.743-1.6909,3.743-3.7466,0-2.0801-1.6665-3.7588-3.743-3.7588zm0,10.011c-3.4449,0-6.2488-2.8221-6.2488-6.2524,0-3.4546,2.8039-6.2525,6.2488-6.2525,3.4388,0,6.2488,2.7979,6.2488,6.2525,0,3.4302-2.81,6.2524-6.2488,6.2524"/>
   <path id="path11587" d="m375,502.36c-4.1358,0-7.5054,3.3574-7.5054,7.4932,0,4.148,3.3695,7.5054,7.5054,7.5054,4.1358,0,7.4932-3.3574,7.4932-7.5054,0-4.1359-3.3574-7.4932-7.4932-7.4932zm0,17.504c-5.5226,0-9.999-4.4886-9.999-10.011,0-5.5105,4.4765-9.9869,9.999-9.9869,5.5104,0,9.999,4.4764,9.999,9.9869,0,5.5225-4.4886,10.011-9.999,10.011"/>
  </g>
 </g>
</svg>
