<?xml version="1.0" standalone="no"?><!-- Generator: Adobe Fireworks CS6, Export SVG Extension by Aaron Beall (http://fireworks.abeall.com) . Version: 0.6.1  --><!DOCTYPE svg PUBLIC "-//W3C//DTD SVG 1.1//EN" "http://www.w3.org/Graphics/SVG/1.1/DTD/svg11.dtd"><svg id="svg-details" viewBox="0 0 24 24" version="1.1"	xmlns="http://www.w3.org/2000/svg" xmlns:xlink="http://www.w3.org/1999/xlink" xml:space="preserve"	x="0px" y="0px" width="24px" height="24px">	<g>		<g>			<g>				<path d="M 21.2019 23.5298 L 2.1975 23.5298 C 1.9211 23.5298 1.6974 23.3062 1.6974 23.0298 L 1.6974 0.0303 C 1.6974 -0.2461 1.9211 -0.4697 2.1975 -0.4697 L 21.2019 -0.4697 C 21.4784 -0.4697 21.702 -0.2461 21.702 0.0303 L 21.702 23.0298 C 21.702 23.3062 21.4784 23.5298 21.2019 23.5298 ZM 2.6976 22.5298 L 20.7018 22.5298 L 20.7018 0.5303 L 2.6976 0.5303 L 2.6976 22.5298 Z" />			</g>			<g>				<path d="M 17.201 7.5298 L 6.1984 7.5298 C 5.922 7.5298 5.6983 7.3062 5.6983 7.0298 C 5.6983 6.7534 5.922 6.5298 6.1984 6.5298 L 17.201 6.5298 C 17.4774 6.5298 17.7011 6.7534 17.7011 7.0298 C 17.7011 7.3062 17.4774 7.5298 17.201 7.5298 Z" />			</g>			<g>				<path d="M 17.201 10.5298 L 6.1984 10.5298 C 5.922 10.5298 5.6983 10.3062 5.6983 10.0298 C 5.6983 9.7534 5.922 9.5298 6.1984 9.5298 L 17.201 9.5298 C 17.4774 9.5298 17.7011 9.7534 17.7011 10.0298 C 17.7011 10.3062 17.4774 10.5298 17.201 10.5298 Z" />			</g>			<g>				<path d="M 17.201 13.5298 L 6.1984 13.5298 C 5.922 13.5298 5.6983 13.3062 5.6983 13.0298 C 5.6983 12.7534 5.922 12.5298 6.1984 12.5298 L 17.201 12.5298 C 17.4774 12.5298 17.7011 12.7534 17.7011 13.0298 C 17.7011 13.3062 17.4774 13.5298 17.201 13.5298 Z" />			</g>			<g>				<path d="M 17.201 16.5298 L 6.1984 16.5298 C 5.922 16.5298 5.6983 16.3062 5.6983 16.0298 C 5.6983 15.7534 5.922 15.5298 6.1984 15.5298 L 17.201 15.5298 C 17.4774 15.5298 17.7011 15.7534 17.7011 16.0298 C 17.7011 16.3062 17.4774 16.5298 17.201 16.5298 Z" />			</g>			<g>				<path d="M 17.201 19.5298 L 6.1984 19.5298 C 5.922 19.5298 5.6983 19.3062 5.6983 19.0298 C 5.6983 18.7534 5.922 18.5298 6.1984 18.5298 L 17.201 18.5298 C 17.4774 18.5298 17.7011 18.7534 17.7011 19.0298 C 17.7011 19.3062 17.4774 19.5298 17.201 19.5298 Z" />			</g>			<g>				<path d="M 6.6985 1.5303 L 4.6981 1.5303 L 4.6981 3.5298 L 6.6985 3.5298 L 6.6985 1.5303 L 6.6985 1.5303 Z" />			</g>			<g>				<path d="M 10.6995 1.5303 L 8.699 1.5303 L 8.699 3.5298 L 10.6995 3.5298 L 10.6995 1.5303 L 10.6995 1.5303 Z" />			</g>			<g>				<path d="M 18.7013 1.5303 L 16.7009 1.5303 L 16.7009 3.5298 L 18.7013 3.5298 L 18.7013 1.5303 L 18.7013 1.5303 Z" />			</g>			<g>				<path d="M 14.7004 1.5303 L 12.6999 1.5303 L 12.6999 3.5298 L 14.7004 3.5298 L 14.7004 1.5303 L 14.7004 1.5303 Z" />			</g>			<g>				<path d="M 17.7011 2.0303 C 17.4247 2.0303 17.201 1.8066 17.201 1.5303 L 17.201 0.0303 C 17.201 -0.2461 17.4247 -0.4697 17.7011 -0.4697 C 17.9775 -0.4697 18.2012 -0.2461 18.2012 0.0303 L 18.2012 1.5303 C 18.2012 1.8066 17.9775 2.0303 17.7011 2.0303 Z" />			</g>			<g>				<path d="M 13.7002 2.0303 C 13.4237 2.0303 13.2 1.8066 13.2 1.5303 L 13.2 0.0303 C 13.2 -0.2461 13.4237 -0.4697 13.7002 -0.4697 C 13.9766 -0.4697 14.2003 -0.2461 14.2003 0.0303 L 14.2003 1.5303 C 14.2003 1.8066 13.9766 2.0303 13.7002 2.0303 Z" />			</g>			<g>				<path d="M 9.6992 2.0303 C 9.4228 2.0303 9.1991 1.8066 9.1991 1.5303 L 9.1991 0.0303 C 9.1991 -0.2461 9.4228 -0.4697 9.6992 -0.4697 C 9.9757 -0.4697 10.1993 -0.2461 10.1993 0.0303 L 10.1993 1.5303 C 10.1993 1.8066 9.9757 2.0303 9.6992 2.0303 Z" />			</g>			<g>				<path d="M 5.6983 2.0303 C 5.4219 2.0303 5.1982 1.8066 5.1982 1.5303 L 5.1982 0.0303 C 5.1982 -0.2461 5.4219 -0.4697 5.6983 -0.4697 C 5.9747 -0.4697 6.1984 -0.2461 6.1984 0.0303 L 6.1984 1.5303 C 6.1984 1.8066 5.9747 2.0303 5.6983 2.0303 Z" />			</g>		</g>	</g></svg>