<?xml version="1.0" encoding="UTF-8" standalone="no"?>
<!-- Created with Inkscape (http://www.inkscape.org/) -->

<svg
   xmlns:dc="http://purl.org/dc/elements/1.1/"
   xmlns:cc="http://creativecommons.org/ns#"
   xmlns:rdf="http://www.w3.org/1999/02/22-rdf-syntax-ns#"
   xmlns:svg="http://www.w3.org/2000/svg"
   xmlns="http://www.w3.org/2000/svg"
   xmlns:sodipodi="http://sodipodi.sourceforge.net/DTD/sodipodi-0.dtd"
   xmlns:inkscape="http://www.inkscape.org/namespaces/inkscape"
   width="24"
   height="24"
   id="svg-download">
  <g transform="translate(0,-8)">
    <g>
      <path
         d="m 11.645034,28.122766 c -0.275754,0 -0.49929,-0.219871 -0.49929,-0.49929 l 0,-14.502322 c 0,-0.270259 0.223536,-0.499291 0.49929,-0.499291 0.27713,0 0.501123,0.229032 0.501123,0.499291 l 0,14.502322 c 0,0.279419 -0.223993,0.49929 -0.501123,0.49929" />
      <path
         d="m 11.645034,28.122766 c -0.126883,0 -0.256058,-0.05039 -0.35271,-0.137419 l -5.49998,-5.501355 c -0.1951355,-0.201548 -0.1951355,-0.522194 0,-0.71 0.1946774,-0.201548 0.5116581,-0.201548 0.7067935,0 l 5.1458965,5.139484 5.147729,-5.139484 c 0.195135,-0.201548 0.510284,-0.201548 0.706794,0 0.195135,0.187806 0.195135,0.508452 0,0.71 l -5.500439,5.501355 c -0.09803,0.08703 -0.225368,0.137419 -0.354084,0.137419" />
      <path
         d="m 23.644034,32.121669 -5.999271,0 c -0.275754,0 -0.49929,-0.219871 -0.49929,-0.49929 0,-0.270258 0.223536,-0.499291 0.49929,-0.499291 l 5.49998,0 0,-22.0008382 -5.49998,0 c -0.275754,0 -0.49929,-0.219871 -0.49929,-0.499291 0,-0.270257 0.223536,-0.49929 0.49929,-0.49929 l 5.999271,0 c 0.277587,0 0.501122,0.229033 0.501122,0.49929 l 0,22.9994202 c 0,0.279419 -0.223535,0.49929 -0.501122,0.49929" />
      <path
         d="m 5.6453053,32.121669 -4.99931596,0 c -0.2771291,0 -0.5006646,-0.219871 -0.5006646,-0.49929 l 0,-22.9994202 c 0,-0.270257 0.2235355,-0.49929 0.5006646,-0.49929 l 4.99931596,0 c 0.2775871,0 0.4992904,0.229033 0.4992904,0.49929 0,0.27942 -0.2217033,0.499291 -0.4992904,0.499291 l -4.5000258,0 0,22.0008382 4.5000258,0 c 0.2775871,0 0.4992904,0.229033 0.4992904,0.499291 0,0.279419 -0.2217033,0.49929 -0.4992904,0.49929" />
    </g>
  </g>
</svg>
