<?xml version="1.0" standalone="no"?><!-- Generator: Adobe Fireworks CS6, Export SVG Extension by Aaron Beall (http://fireworks.abeall.com) . Version: 0.6.1  --><!DOCTYPE svg PUBLIC "-//W3C//DTD SVG 1.1//EN" "http://www.w3.org/Graphics/SVG/1.1/DTD/svg11.dtd"><svg viewBox="0 0 25 25" version="1.1"	xmlns="http://www.w3.org/2000/svg" xmlns:xlink="http://www.w3.org/1999/xlink" xml:space="preserve"	x="0px" y="0px" width="25px" height="25px">	<g>		<g>			<g>				<path d="M 21.1231 24.1172 L 4.1191 24.1172 C 3.8427 24.1172 3.619 23.8936 3.619 23.6172 L 3.619 3.6176 C 3.619 3.3412 3.8427 3.1176 4.1191 3.1176 L 21.1231 3.1176 C 21.3995 3.1176 21.6232 3.3412 21.6232 3.6176 L 21.6232 23.6172 C 21.6232 23.8936 21.3995 24.1172 21.1231 24.1172 ZM 4.6192 23.1172 L 20.623 23.1172 L 20.623 4.1176 L 4.6192 4.1176 L 4.6192 23.1172 Z" />			</g>			<g>				<path d="M 17.1222 4.1176 L 8.1201 4.1176 C 7.8436 4.1176 7.6199 3.8939 7.6199 3.6176 L 7.6199 0.6176 C 7.6199 0.3412 7.8436 0.1176 8.1201 0.1176 L 17.1222 0.1176 C 17.3986 0.1176 17.6223 0.3412 17.6223 0.6176 L 17.6223 3.6176 C 17.6223 3.8939 17.3986 4.1176 17.1222 4.1176 ZM 8.6202 3.1176 L 16.6221 3.1176 L 16.6221 1.1176 L 8.6202 1.1176 L 8.6202 3.1176 Z"/>			</g>			<g>				<path d="M 24.1238 4.1176 L 1.1184 4.1176 C 0.842 4.1176 0.6183 3.8939 0.6183 3.6176 C 0.6183 3.3412 0.842 3.1176 1.1184 3.1176 L 24.1238 3.1176 C 24.4002 3.1176 24.6239 3.3412 24.6239 3.6176 C 24.6239 3.8939 24.4002 4.1176 24.1238 4.1176 Z" />			</g>			<g>				<path d="M 8.1201 19.6173 C 7.8436 19.6173 7.6199 19.3936 7.6199 19.1173 L 7.6199 7.6175 C 7.6199 7.3411 7.8436 7.1175 8.1201 7.1175 C 8.3965 7.1175 8.6202 7.3411 8.6202 7.6175 L 8.6202 19.1173 C 8.6202 19.3936 8.3965 19.6173 8.1201 19.6173 Z" />			</g>			<g>				<path d="M 12.6211 19.6173 C 12.3447 19.6173 12.121 19.3936 12.121 19.1173 L 12.121 7.6175 C 12.121 7.3411 12.3447 7.1175 12.6211 7.1175 C 12.8975 7.1175 13.1212 7.3411 13.1212 7.6175 L 13.1212 19.1173 C 13.1212 19.3936 12.8975 19.6173 12.6211 19.6173 Z" />			</g>			<g>				<path d="M 17.1222 19.1173 C 16.8457 19.1173 16.6221 18.8936 16.6221 18.6173 L 16.6221 7.1175 C 16.6221 6.8411 16.8457 6.6175 17.1222 6.6175 C 17.3986 6.6175 17.6223 6.8411 17.6223 7.1175 L 17.6223 18.6173 C 17.6223 18.8936 17.3986 19.1173 17.1222 19.1173 Z" />			</g>		</g>	</g></svg>