<?xml version="1.0" standalone="no"?><!-- Generator: Adobe Fireworks CS6, Export SVG Extension by Aaron Beall (http://fireworks.abeall.com) . Version: 0.6.1  --><!DOCTYPE svg PUBLIC "-//W3C//DTD SVG 1.1//EN" "http://www.w3.org/Graphics/SVG/1.1/DTD/svg11.dtd"><svg id="svg-graph" viewBox="0 0 24 24" version="1.1"	xmlns="http://www.w3.org/2000/svg" xmlns:xlink="http://www.w3.org/1999/xlink" xml:space="preserve"	x="0px" y="0px" width="24px" height="24px">	<g>		<g>			<g>				<path d="M 23.8539 23.6154 L 0.8486 23.6154 C 0.5721 23.6154 0.3484 23.3918 0.3484 23.1154 C 0.3484 22.8391 0.5721 22.6154 0.8486 22.6154 L 23.8539 22.6154 C 24.1304 22.6154 24.3541 22.8391 24.3541 23.1154 C 24.3541 23.3918 24.1304 23.6154 23.8539 23.6154 Z" />			</g>			<g>				<path d="M 4.8495 23.6154 L 1.8488 23.6154 C 1.5724 23.6154 1.3487 23.3918 1.3487 23.1154 L 1.3487 18.1155 C 1.3487 17.8391 1.5724 17.6155 1.8488 17.6155 L 4.8495 17.6155 C 5.1259 17.6155 5.3496 17.8391 5.3496 18.1155 L 5.3496 23.1154 C 5.3496 23.3918 5.1259 23.6154 4.8495 23.6154 ZM 2.3489 22.6154 L 4.3494 22.6154 L 4.3494 18.6155 L 2.3489 18.6155 L 2.3489 22.6154 Z" />			</g>			<g>				<path d="M 10.8509 23.6154 L 7.8502 23.6154 C 7.5738 23.6154 7.3501 23.3918 7.3501 23.1154 L 7.3501 13.1156 C 7.3501 12.8392 7.5738 12.6156 7.8502 12.6156 L 10.8509 12.6156 C 11.1273 12.6156 11.351 12.8392 11.351 13.1156 L 11.351 23.1154 C 11.351 23.3918 11.1273 23.6154 10.8509 23.6154 ZM 8.3503 22.6154 L 10.3508 22.6154 L 10.3508 13.6156 L 8.3503 13.6156 L 8.3503 22.6154 Z" />			</g>			<g>				<path d="M 16.8523 23.6154 L 13.8516 23.6154 C 13.5752 23.6154 13.3515 23.3918 13.3515 23.1154 L 13.3515 15.1156 C 13.3515 14.8392 13.5752 14.6156 13.8516 14.6156 L 16.8523 14.6156 C 17.1287 14.6156 17.3524 14.8392 17.3524 15.1156 L 17.3524 23.1154 C 17.3524 23.3918 17.1287 23.6154 16.8523 23.6154 ZM 14.3517 22.6154 L 16.3522 22.6154 L 16.3522 15.6156 L 14.3517 15.6156 L 14.3517 22.6154 Z" />			</g>			<g>				<path d="M 22.8537 23.6154 L 19.853 23.6154 C 19.5766 23.6154 19.3529 23.3918 19.3529 23.1154 L 19.3529 8.1157 C 19.3529 7.8393 19.5766 7.6157 19.853 7.6157 L 22.8537 7.6157 C 23.1301 7.6157 23.3538 7.8393 23.3538 8.1157 L 23.3538 23.1154 C 23.3538 23.3918 23.1301 23.6154 22.8537 23.6154 ZM 20.3531 22.6154 L 22.3536 22.6154 L 22.3536 8.6157 L 20.3531 8.6157 L 20.3531 22.6154 Z" />			</g>			<g>				<path d="M 3.3492 12.6156 C 2.5218 12.6156 1.8488 11.9428 1.8488 11.1156 C 1.8488 10.2885 2.5218 9.6157 3.3492 9.6157 C 4.1765 9.6157 4.8495 10.2885 4.8495 11.1156 C 4.8495 11.9428 4.1765 12.6156 3.3492 12.6156 ZM 3.3492 10.6157 C 3.0737 10.6157 2.8491 10.8398 2.8491 11.1156 C 2.8491 11.392 3.0737 11.6156 3.3492 11.6156 C 3.6246 11.6156 3.8492 11.392 3.8492 11.1156 C 3.8492 10.8398 3.6246 10.6157 3.3492 10.6157 Z" />			</g>			<g>				<path d="M 9.3506 7.6157 C 8.5232 7.6157 7.8502 6.9429 7.8502 6.1157 C 7.8502 5.2886 8.5232 4.6158 9.3506 4.6158 C 10.1779 4.6158 10.8509 5.2886 10.8509 6.1157 C 10.8509 6.9429 10.1779 7.6157 9.3506 7.6157 ZM 9.3506 5.6158 C 9.0751 5.6158 8.8505 5.8398 8.8505 6.1157 C 8.8505 6.3921 9.0751 6.6157 9.3506 6.6157 C 9.626 6.6157 9.8506 6.3921 9.8506 6.1157 C 9.8506 5.8398 9.626 5.6158 9.3506 5.6158 Z" />			</g>			<g>				<path d="M 15.352 9.6157 C 14.5246 9.6157 13.8516 8.9428 13.8516 8.1157 C 13.8516 7.2886 14.5246 6.6157 15.352 6.6157 C 16.1793 6.6157 16.8523 7.2886 16.8523 8.1157 C 16.8523 8.9428 16.1793 9.6157 15.352 9.6157 ZM 15.352 7.6157 C 15.0765 7.6157 14.8519 7.8398 14.8519 8.1157 C 14.8519 8.3921 15.0765 8.6157 15.352 8.6157 C 15.6274 8.6157 15.8521 8.3921 15.8521 8.1157 C 15.8521 7.8398 15.6274 7.6157 15.352 7.6157 Z" />			</g>			<g>				<path d="M 21.3534 2.6158 C 20.526 2.6158 19.853 1.943 19.853 1.1158 C 19.853 0.2887 20.526 -0.3842 21.3534 -0.3842 C 22.1807 -0.3842 22.8537 0.2887 22.8537 1.1158 C 22.8537 1.943 22.1807 2.6158 21.3534 2.6158 ZM 21.3534 0.6158 C 21.0779 0.6158 20.8533 0.8399 20.8533 1.1158 C 20.8533 1.3922 21.0779 1.6158 21.3534 1.6158 C 21.6288 1.6158 21.8535 1.3922 21.8535 1.1158 C 21.8535 0.8399 21.6288 0.6158 21.3534 0.6158 Z" />			</g>			<g>				<path d="M 4.1179 10.976 C 3.9753 10.976 3.8326 10.9145 3.734 10.7958 C 3.5572 10.5839 3.5855 10.268 3.7975 10.0912 L 8.2624 6.3711 C 8.4744 6.1953 8.7889 6.2222 8.9667 6.4351 C 9.1435 6.6475 9.1152 6.9629 8.9032 7.1396 L 4.4383 10.8598 C 4.3445 10.9374 4.2312 10.976 4.1179 10.976 Z" />			</g>			<g>				<path d="M 14.4318 8.3086 C 14.3791 8.3086 14.3264 8.3008 14.2736 8.2827 L 10.1379 6.9058 C 9.8761 6.8184 9.7344 6.5352 9.8214 6.2729 C 9.9093 6.0103 10.1926 5.873 10.4543 5.9565 L 14.5901 7.3345 C 14.8519 7.4214 14.9935 7.7046 14.9066 7.9673 C 14.8362 8.1762 14.6409 8.3086 14.4318 8.3086 Z" />			</g>			<g>				<path d="M 16.0025 7.8569 C 15.8873 7.8569 15.771 7.8174 15.6772 7.7368 C 15.4672 7.5566 15.4428 7.2412 15.6226 7.0313 L 20.3229 1.5494 C 20.5055 1.3394 20.821 1.3155 21.0281 1.4952 C 21.2381 1.6754 21.2625 1.9903 21.0828 2.1998 L 16.3825 7.6821 C 16.2828 7.7978 16.1432 7.8569 16.0025 7.8569 Z" />			</g>		</g>	</g></svg>