<?xml version="1.0" standalone="no"?><!-- Generator: Adobe Fireworks CS6, Export SVG Extension by Aaron Beall (http://fireworks.abeall.com) . Version: 0.6.1  --><!DOCTYPE svg PUBLIC "-//W3C//DTD SVG 1.1//EN" "http://www.w3.org/Graphics/SVG/1.1/DTD/svg11.dtd"><svg id="svg-hide" viewBox="0 0 48 48" version="1.1"	xmlns="http://www.w3.org/2000/svg" xmlns:xlink="http://www.w3.org/1999/xlink" xml:space="preserve"	x="0px" y="0px" width="24px" height="24px">	<g>		<g>			<g>				<path d="M 24.0834 38.0121 C 22.0302 38.0121 19.9128 37.6849 17.7912 37.0404 C 17.2625 36.8793 16.9647 36.3212 17.1248 35.7928 C 17.2864 35.264 17.8448 34.9657 18.3721 35.1268 C 20.3058 35.7147 22.2274 36.0121 24.0834 36.0121 C 34.5771 36.0121 43.5515 26.5507 45.7708 24.0106 C 44.7081 22.7909 42.0972 19.9789 38.5295 17.3989 C 38.0818 17.0746 37.9818 16.4501 38.3049 16.0029 C 38.6286 15.5546 39.2545 15.4545 39.7012 15.7778 C 44.6339 19.3452 47.7333 23.2274 47.8627 23.3915 C 48.1512 23.7552 48.1512 24.2689 47.8627 24.6332 C 47.4302 25.1796 37.1177 38.0121 24.0834 38.0121 Z" />			</g>			<g>				<path d="M 9.0203 32.4144 C 8.8173 32.4144 8.6122 32.3524 8.435 32.2245 C 3.5189 28.6635 0.4331 24.7963 0.3037 24.6332 C 0.0157 24.2689 0.0162 23.7552 0.3042 23.3915 C 0.7368 22.8451 11.0493 10.0121 24.0834 10.0121 C 25.8024 10.0121 27.5706 10.2421 29.3388 10.6938 C 29.8739 10.8305 30.1966 11.3754 30.0599 11.9106 C 29.9227 12.4457 29.3779 12.7685 28.8438 12.6313 C 27.2367 12.2211 25.6354 12.0121 24.0834 12.0121 C 13.5898 12.0121 4.6154 21.474 2.3961 24.0126 C 3.4554 25.2299 6.0546 28.0306 9.6077 30.6044 C 10.0548 30.9276 10.1549 31.5541 9.8312 32.0009 C 9.6354 32.2709 9.3303 32.4144 9.0203 32.4144 Z"  />			</g>			<g>				<path d="M 16.085 25.0121 C 15.5328 25.0121 15.0851 24.5643 15.0851 24.0121 C 15.0851 19.0497 19.122 15.0121 24.0834 15.0121 C 24.6356 15.0121 25.0833 15.4604 25.0833 16.0121 C 25.0833 16.5644 24.6356 17.0121 24.0834 17.0121 C 20.2243 17.0121 17.0848 20.1523 17.0848 24.0121 C 17.0848 24.5643 16.6371 25.0121 16.085 25.0121 Z" />			</g>			<g>				<path d="M 24.0834 33.0121 C 23.5313 33.0121 23.0837 32.5643 23.0837 32.0121 C 23.0837 31.4603 23.5313 31.0121 24.0834 31.0121 C 27.9426 31.0121 31.0822 27.8724 31.0822 24.0121 C 31.0822 23.4603 31.5298 23.0121 32.082 23.0121 C 32.6341 23.0121 33.0818 23.4603 33.0818 24.0121 C 33.0818 28.9745 29.0449 33.0121 24.0834 33.0121 Z" />			</g>			<g>				<path d="M 4.5871 44.5121 C 4.3313 44.5121 4.0754 44.4144 3.8802 44.2186 C 3.4896 43.829 3.4896 43.1957 3.8802 42.8046 L 42.8729 3.8046 C 43.2635 3.4145 43.8962 3.4145 44.2867 3.8046 C 44.6773 4.1957 44.6773 4.829 44.2867 5.2187 L 5.294 44.2186 C 5.0987 44.4144 4.8429 44.5121 4.5871 44.5121 Z" />			</g>		</g>	</g></svg>