<?xml version="1.0" encoding="UTF-8" standalone="no"?>
<!-- Created with Inkscape (http://www.inkscape.org/) -->
<svg id="svg31924" xmlns:rdf="http://www.w3.org/1999/02/22-rdf-syntax-ns#" xmlns="http://www.w3.org/2000/svg" height="24" width="24" version="1.1" xmlns:cc="http://creativecommons.org/ns#" xmlns:dc="http://purl.org/dc/elements/1.1/">
 <metadata id="metadata31929">
  <rdf:RDF>
   <cc:Work rdf:about="">
    <dc:format>image/svg+xml</dc:format>
    <dc:type rdf:resource="http://purl.org/dc/dcmitype/StillImage"/>
    <dc:title/>
   </cc:Work>
  </rdf:RDF>
 </metadata>
 <g id="layer1" transform="translate(0,-1028.3622)">
  <g id="g31954" fill-rule="nonzero" fill="#000" transform="matrix(0.99943605,0,0,0.99943605,-221.37845,584.74747)">
   <path id="path9834" d="m222.36,462.06,7.2868,4.8802,7.4744-5.0053c0.14599-0.0836,0.33368-0.0836,0.47551,0l7.0532,4.713v-16.976l-7.2868-4.8382-7.4786,4.9633c-0.14183,0.0836-0.33372,0.0836-0.47551,0l-7.049-4.713v16.976zm22.719,5.7974c-0.0876,0-0.17102,0-0.24191-0.0429l-7.4744-5.0053-7.4786,5.0053c-0.14183,0.0836-0.33372,0.0836-0.47551,0l-7.7164-5.1721c-0.11675-0.0831-0.18769-0.20831-0.18769-0.33346v-18.019c0-0.16673,0.0834-0.29189,0.22524-0.37547,0.13767-0.0836,0.30868-0.0429,0.43795,0.0429l7.4787,4.9638,7.4744-4.9638c0.14599-0.12515,0.33368-0.12515,0.47551,0l7.7164,5.1305c0.12095,0.0836,0.19184,0.20873,0.19184,0.37546v17.977c0,0.16716-0.0834,0.29231-0.22523,0.37546-0.0667,0.0429-0.13347,0.0429-0.20021,0.0429"/>
   <path id="path9836" d="m229.65,467.86c-0.2336,0-0.42965-0.16673-0.42965-0.41704v-17.977c0-0.25031,0.19605-0.45904,0.42965-0.45904,0.23775,0,0.42959,0.20873,0.42959,0.45904v17.977c0,0.25031-0.19184,0.41704-0.42959,0.41704"/>
   <path id="path9838" d="m237.36,462.73c-0.23775,0-0.4296-0.20873-0.4296-0.41704v-18.019c0-0.20873,0.19185-0.41704,0.4296-0.41704,0.2336,0,0.4296,0.20831,0.4296,0.41704v18.019c0,0.20831-0.196,0.41704-0.4296,0.41704"/>
  </g>
 </g>
</svg>
