<?xml version="1.0" standalone="no"?><!-- Generator: Adobe Fireworks CS6, Export SVG Extension by Aaron Beall (http://fireworks.abeall.com) . Version: 0.6.1  --><!DOCTYPE svg PUBLIC "-//W3C//DTD SVG 1.1//EN" "http://www.w3.org/Graphics/SVG/1.1/DTD/svg11.dtd"><svg viewBox="0 0 25 25" style="background-color:#ffffff00" version="1.1"	xmlns="http://www.w3.org/2000/svg" xmlns:xlink="http://www.w3.org/1999/xlink" xml:space="preserve"	x="0px" y="0px" width="25px" height="25px">	<g>		<g>			<g>				<path d="M 12.8625 24.6022 C 6.2438 24.6022 0.8597 19.219 0.8597 12.6024 C 0.8597 5.9858 6.2438 0.6025 12.8625 0.6025 C 19.4812 0.6025 24.8652 5.9858 24.8652 12.6024 C 24.8652 19.219 19.4812 24.6022 12.8625 24.6022 ZM 12.8625 1.6025 C 6.7957 1.6025 1.8599 6.5371 1.8599 12.6024 C 1.8599 18.6682 6.7957 23.6022 12.8625 23.6022 C 18.9293 23.6022 23.8651 18.6682 23.8651 12.6024 C 23.8651 6.5371 18.9293 1.6025 12.8625 1.6025 Z"/>			</g>			<g>				<path d="M 11.8623 21.1022 C 10.8875 21.1022 9.8618 18.6096 9.8618 18.1023 C 9.8618 17.7346 10.0229 17.4124 10.1646 17.1287 C 10.2614 16.9348 10.3619 16.7346 10.3619 16.6023 C 10.3395 16.4314 9.9321 15.8806 9.5082 15.4558 C 9.4144 15.3625 9.3617 15.2346 9.3617 15.1023 C 9.3617 14.6731 9.2845 14.3826 9.1321 14.239 C 8.8821 14.0022 8.2843 14.0354 7.6543 14.073 C 7.3954 14.0872 7.1278 14.1023 6.8611 14.1023 C 5.2787 14.1023 4.8606 12.4672 4.8606 11.6024 C 4.8606 11.4427 4.8938 7.6859 7.7637 7.1122 C 9.0667 6.851 9.9536 6.9276 10.4664 7.3485 C 10.6481 7.4969 10.7565 7.6718 10.8123 7.8324 C 11.3407 8.222 12.2832 8.0023 13.1213 7.8075 C 13.3998 7.7426 13.6674 7.6801 13.9165 7.642 C 14.0093 6.7963 14.0122 5.9805 13.9253 5.624 C 13.3137 5.8813 12.7052 5.8799 12.2266 5.6157 C 11.7333 5.3413 11.4266 4.8203 11.3641 4.1489 C 11.1863 2.2383 15.2986 1.2847 16.125 1.1133 C 16.3926 1.0591 16.6603 1.23 16.7159 1.5005 C 16.7726 1.771 16.5988 2.0356 16.3281 2.0918 C 14.4028 2.4937 12.2988 3.3989 12.3605 4.0562 C 12.382 4.2915 12.4611 4.6016 12.713 4.7412 C 12.9387 4.8677 13.2766 4.8374 13.639 4.6553 C 13.9351 4.5078 14.2437 4.5225 14.486 4.6973 C 15.1375 5.166 15.0476 6.8461 14.858 8.1732 C 14.8229 8.4193 14.6119 8.6024 14.3628 8.6024 C 14.1177 8.6024 13.7435 8.6893 13.3479 8.7811 C 12.2598 9.0345 10.9041 9.35 10.0083 8.4559 C 9.9146 8.3627 9.8618 8.2352 9.8618 8.1024 C 9.8315 8.0731 9.4056 7.8031 7.959 8.0931 C 5.8853 8.5077 5.8608 11.5717 5.8608 11.6024 C 5.8608 11.662 5.8813 13.1024 6.8611 13.1024 C 7.1091 13.1024 7.3563 13.0883 7.5975 13.0741 C 8.4152 13.0287 9.2562 12.9803 9.8188 13.512 C 10.1479 13.8225 10.3248 14.2761 10.3571 14.8938 C 10.7408 15.2986 11.3622 16.0403 11.3622 16.6023 C 11.3622 16.9705 11.2009 17.2922 11.0593 17.5759 C 10.9626 17.7698 10.8621 17.9705 10.8621 18.1023 C 10.8826 18.47 11.5966 19.8523 11.9336 20.1017 C 13.5453 20.0826 14.3628 19.4104 14.3628 18.1023 C 14.3628 17.8875 14.5006 17.696 14.7047 17.6282 C 14.7086 17.6267 15.3611 17.3967 16.0098 16.7488 C 16.0908 16.6682 16.1064 16.6262 16.1064 16.6257 C 16.083 16.6511 15.9628 16.5378 15.8895 16.4753 C 15.6669 16.2815 15.363 16.0168 15.363 15.6023 C 15.363 15.2473 15.6415 14.9583 16.1973 14.3801 C 16.9435 13.6047 17.7035 12.7572 17.639 12.222 C 17.1868 12.3553 16.4932 12.4403 16.0098 11.9559 C 15.9452 11.892 15.9003 11.8114 15.8778 11.724 C 15.703 11.0243 15.4099 10.2743 15.2419 10.0863 C 15.0769 10.0453 14.903 9.9276 14.8365 9.788 C 14.7906 9.6908 14.7096 9.434 14.9469 9.1449 C 15.3162 8.6957 17.0265 7.7323 18.7906 8.0741 C 20.4238 7.1342 20.8683 4.7925 20.8722 4.7681 C 20.922 4.4956 21.1857 4.313 21.4543 4.3657 C 21.7258 4.415 21.9056 4.6753 21.8568 4.9468 C 21.8344 5.0693 21.2864 7.9506 19.0875 9.0497 C 18.9791 9.1024 18.8571 9.1171 18.7428 9.0873 C 17.682 8.8221 16.6144 9.2137 16.0684 9.5258 C 16.2988 9.8353 16.5558 10.371 16.8019 11.2997 C 17.0148 11.3744 17.429 11.2601 17.64 11.1552 C 17.8334 11.0585 18.0648 11.0966 18.2173 11.2489 C 19.4304 12.4618 17.8578 14.0964 16.9181 15.0735 C 16.7501 15.2483 16.5343 15.4724 16.417 15.616 C 16.4551 15.6418 16.5059 15.6858 16.546 15.7209 C 16.7745 15.9192 17.0872 16.1912 17.1028 16.6233 C 17.1125 16.9099 16.9825 17.1902 16.7169 17.4558 C 16.1982 17.9744 15.6747 18.2795 15.3494 18.4373 C 15.2058 20.1368 13.9536 21.1022 11.8623 21.1022 Z" />			</g>		</g>	</g></svg>