<?xml version="1.0" standalone="no"?><!-- Generator: Adobe Fireworks CS6, Export SVG Extension by Aaron Beall (http://fireworks.abeall.com) . Version: 0.6.1  --><!DOCTYPE svg PUBLIC "-//W3C//DTD SVG 1.1//EN" "http://www.w3.org/Graphics/SVG/1.1/DTD/svg11.dtd"><svg id="svg-options" viewBox="0 0 24 24" version="1.1"	xmlns="http://www.w3.org/2000/svg" xmlns:xlink="http://www.w3.org/1999/xlink" xml:space="preserve"	x="0px" y="0px" width="24px" height="24px">	<g>		<g>			<g>				<path d="M 13.2113 24.0059 L 10.2106 24.0059 C 9.9341 24.0059 9.7104 23.7822 9.7104 23.5059 L 9.7104 20.6514 C 8.9193 20.4512 8.0416 20.1953 7.3779 19.8721 L 5.3452 21.9053 C 5.1581 22.0928 4.826 22.0928 4.638 21.9053 L 1.8082 19.0771 C 1.7144 18.9834 1.6617 18.8564 1.6617 18.7236 C 1.6617 18.5908 1.7144 18.4639 1.8082 18.3701 L 3.8419 16.3369 C 3.5191 15.6738 3.2636 14.7969 3.0629 14.0059 L 0.2083 14.0059 C -0.0682 14.0059 -0.2919 13.7822 -0.2919 13.5059 L -0.2919 10.5059 C -0.2919 10.2295 -0.0682 10.0059 0.2083 10.0059 L 3.0629 10.0059 C 3.2636 9.2148 3.5191 8.3379 3.8419 7.6748 L 1.8087 5.6421 C 1.6133 5.4468 1.6133 5.1304 1.8087 4.9351 L 4.638 2.1069 C 4.8333 1.9116 5.1498 1.9116 5.3452 2.1069 L 7.3789 4.1392 C 8.0431 3.8159 8.9202 3.561 9.7104 3.3618 L 9.7104 0.5063 C 9.7104 0.23 9.9341 0.0063 10.2106 0.0063 L 13.2113 0.0063 C 13.4877 0.0063 13.7114 0.23 13.7114 0.5063 L 13.7114 3.3618 C 14.5006 3.561 15.3773 3.8149 16.0425 4.1392 L 18.0757 2.1069 C 18.2711 1.9116 18.5875 1.9116 18.7829 2.1069 L 21.6127 4.9351 C 21.7064 5.0288 21.7592 5.1558 21.7592 5.2886 C 21.7592 5.4214 21.7064 5.5483 21.6127 5.6421 L 19.58 7.6738 C 19.9037 8.3389 20.1582 9.2158 20.3575 10.0059 L 23.2136 10.0059 C 23.4901 10.0059 23.7137 10.2295 23.7137 10.5059 L 23.7137 13.5059 C 23.7137 13.7822 23.4901 14.0059 23.2136 14.0059 L 20.3585 14.0059 C 20.1577 14.7969 19.9023 15.6738 19.58 16.3369 L 21.6127 18.3701 C 21.808 18.5654 21.808 18.8818 21.6127 19.0771 L 18.7839 21.9053 C 18.5885 22.1006 18.272 22.1006 18.0767 21.9053 L 16.0425 19.873 C 15.3793 20.1953 14.5021 20.4512 13.7114 20.6514 L 13.7114 23.5059 C 13.7114 23.7822 13.4877 24.0059 13.2113 24.0059 ZM 10.7107 23.0059 L 12.7112 23.0059 L 12.7112 20.2598 C 12.7112 20.0293 12.8694 19.8281 13.0936 19.7734 C 13.6513 19.6387 15.1331 19.2803 15.8716 18.8291 C 16.0664 18.71 16.3214 18.7373 16.486 18.9023 L 18.4303 20.8447 L 20.5518 18.7236 L 18.609 16.7803 C 18.4459 16.6172 18.4156 16.3633 18.5358 16.166 C 18.9865 15.4277 19.3455 13.9463 19.4808 13.3887 C 19.535 13.1641 19.7357 13.0059 19.9668 13.0059 L 22.7135 13.0059 L 22.7135 11.0059 L 19.9658 11.0059 C 19.7348 11.0059 19.5336 10.8477 19.4798 10.623 C 19.3455 10.0664 18.989 8.5869 18.5358 7.8447 C 18.4156 7.6475 18.4459 7.3936 18.609 7.2305 L 20.5518 5.2886 L 18.4293 3.1675 L 16.486 5.1099 C 16.3228 5.2739 16.0679 5.3013 15.8721 5.1831 C 15.2054 4.7769 13.9673 4.4497 13.0941 4.2397 C 12.8694 4.1851 12.7112 3.9849 12.7112 3.7534 L 12.7112 1.0063 L 10.7107 1.0063 L 10.7107 3.7534 C 10.7107 3.9849 10.5525 4.1851 10.3278 4.2397 C 9.771 4.3735 8.2912 4.73 7.5498 5.1831 C 7.3525 5.3013 7.099 5.2739 6.9354 5.1099 L 4.9916 3.1675 L 2.8695 5.2886 L 4.8128 7.2314 C 4.9764 7.3945 5.0062 7.6484 4.8861 7.8457 C 4.4348 8.583 4.0758 10.0654 3.9406 10.623 C 3.8864 10.8477 3.6856 11.0059 3.4546 11.0059 L 0.7083 11.0059 L 0.7083 13.0059 L 3.4546 13.0059 C 3.6856 13.0059 3.8864 13.1641 3.9406 13.3887 C 4.0758 13.9463 4.4348 15.4287 4.8861 16.166 C 5.0062 16.3633 4.9764 16.6172 4.8128 16.7803 L 2.869 18.7236 L 4.9916 20.8447 L 6.9344 18.9014 C 7.0966 18.7373 7.3515 18.708 7.5488 18.8281 C 8.2878 19.2803 9.7701 19.6387 10.3283 19.7734 C 10.5525 19.8281 10.7107 20.0293 10.7107 20.2598 L 10.7107 23.0059 Z" />			</g>			<g>				<path d="M 11.7109 17.0059 C 8.9535 17.0059 6.7097 14.7627 6.7097 12.0059 C 6.7097 9.249 8.9535 7.0059 11.7109 7.0059 C 14.4684 7.0059 16.7121 9.249 16.7121 12.0059 C 16.7121 14.7627 14.4684 17.0059 11.7109 17.0059 ZM 11.7109 8.0059 C 9.5049 8.0059 7.71 9.7998 7.71 12.0059 C 7.71 14.2119 9.5049 16.0059 11.7109 16.0059 C 13.917 16.0059 15.7119 14.2119 15.7119 12.0059 C 15.7119 9.7998 13.917 8.0059 11.7109 8.0059 Z" />			</g>		</g>	</g></svg>