<?xml version="1.0" encoding="UTF-8" standalone="no"?>
<!-- Created with Inkscape (http://www.inkscape.org/) -->

<svg
   xmlns:dc="http://purl.org/dc/elements/1.1/"
   xmlns:cc="http://creativecommons.org/ns#"
   xmlns:rdf="http://www.w3.org/1999/02/22-rdf-syntax-ns#"
   xmlns:svg="http://www.w3.org/2000/svg"
   xmlns="http://www.w3.org/2000/svg"
   xmlns:sodipodi="http://sodipodi.sourceforge.net/DTD/sodipodi-0.dtd"
   xmlns:inkscape="http://www.inkscape.org/namespaces/inkscape"
   width="24px"
   height="24px"
   id="svg22176"
   version="1.1"
   inkscape:version="0.48.4 r9939"
   sodipodi:docname="polygon.svg">
  <defs
     id="defs22178" />
  <sodipodi:namedview
     id="base"
     pagecolor="#ffffff"
     bordercolor="#666666"
     borderopacity="1.0"
     inkscape:pageopacity="0.0"
     inkscape:pageshadow="2"
     inkscape:zoom="7"
     inkscape:cx="24.285714"
     inkscape:cy="24"
     inkscape:current-layer="layer1"
     showgrid="true"
     inkscape:grid-bbox="true"
     inkscape:document-units="px"
     inkscape:window-width="1920"
     inkscape:window-height="1171"
     inkscape:window-x="1920"
     inkscape:window-y="0"
     inkscape:window-maximized="1" />
  <metadata
     id="metadata22181">
    <rdf:RDF>
      <cc:Work
         rdf:about="">
        <dc:format>image/svg+xml</dc:format>
        <dc:type
           rdf:resource="http://purl.org/dc/dcmitype/StillImage" />
        <dc:title />
      </cc:Work>
    </rdf:RDF>
  </metadata>
  <g
     id="layer1"
     inkscape:label="Layer 1"
     inkscape:groupmode="layer">
    <path
       inkscape:connector-curvature="0"
       d="m 4.649176,15.688809 c -1.9344223,0 -3.5154041,1.552067 -3.5154041,3.451111 0,1.902775 1.5809818,3.451111 3.5154041,3.451111 1.9382221,0 3.515403,-1.548336 3.515403,-3.451111 0,-1.899044 -1.5771809,-3.451111 -3.515403,-3.451111 z m 0,7.670793 c -2.3676718,0 -4.29449342,-1.895312 -4.29449342,-4.219682 0,-2.32437 1.92682162,-4.215953 4.29449342,-4.215953 2.3676719,0 4.2982933,1.891583 4.2982933,4.215953 0,2.32437 -1.9306214,4.219682 -4.2982933,4.219682"
       style="fill:#000000;fill-opacity:1;fill-rule:nonzero;stroke:none"
       id="path14292" />
    <path
       inkscape:connector-curvature="0"
       d="m 19.48988,15.688809 c -1.938223,0 -3.511603,1.552067 -3.511603,3.451111 0,1.902775 1.57338,3.451111 3.511603,3.451111 1.938222,0 3.515403,-1.548336 3.515403,-3.451111 0,-1.899044 -1.577181,-3.451111 -3.515403,-3.451111 z m 0,7.670793 c -2.371473,0 -4.294493,-1.895312 -4.294493,-4.219682 0,-2.32437 1.92302,-4.215953 4.294493,-4.215953 2.367672,0 4.298293,1.891583 4.298293,4.215953 0,2.32437 -1.930621,4.219682 -4.298293,4.219682"
       style="fill:#000000;fill-opacity:1;fill-rule:nonzero;stroke:none"
       id="path14294" />
    <path
       inkscape:connector-curvature="0"
       d="m 12.071428,1.1195234 c -1.938222,0 -3.5154038,1.5520678 -3.5154038,3.4511111 0,1.9027746 1.5771818,3.451111 3.5154038,3.451111 1.938222,0 3.515403,-1.5483364 3.515403,-3.451111 0,-1.8990433 -1.577181,-3.4511111 -3.515403,-3.4511111 z m 0,7.6707937 c -2.3714726,0 -4.2982929,-1.8953129 -4.2982929,-4.2196826 0,-2.3243698 1.9268203,-4.21595122 4.2982929,-4.21595122 2.36387,0 4.294493,1.89158142 4.294493,4.21595122 0,2.3243697 -1.930623,4.2196826 -4.294493,4.2196826"
       style="fill:#000000;fill-opacity:1;fill-rule:nonzero;stroke:none"
       id="path14296" />
    <path
       inkscape:connector-curvature="0"
       d="M 6.7470164,15.882817 6.0477363,15.539572 9.9735877,7.8277379 10.672867,8.1709829 6.7470164,15.882817"
       style="fill:#000000;fill-opacity:1;fill-rule:nonzero;stroke:none"
       id="path14298" />
    <path
       inkscape:connector-curvature="0"
       d="m 17.392039,15.882817 -3.922051,-7.7118341 0.699281,-0.343245 3.92205,7.7118341 -0.69928,0.343245"
       style="fill:#000000;fill-opacity:1;fill-rule:nonzero;stroke:none"
       id="path14300" />
    <path
       inkscape:connector-curvature="0"
       d="m 8.5560242,19.524205 7.0308068,0 0,-0.768049 -7.0308068,0 0,0.768049 z"
       style="fill:#000000;fill-opacity:1;fill-rule:nonzero;stroke:none"
       id="path14302" />
  </g>
</svg>
