<?xml version="1.0" standalone="no"?><!-- Generator: Adobe Fireworks CS6, Export SVG Extension by Aaron Beall (http://fireworks.abeall.com) . Version: 0.6.1  --><!DOCTYPE svg PUBLIC "-//W3C//DTD SVG 1.1//EN" "http://www.w3.org/Graphics/SVG/1.1/DTD/svg11.dtd"><svg id="svg-remove" viewBox="0 0 48 48" version="1.1"	xmlns="http://www.w3.org/2000/svg" xmlns:xlink="http://www.w3.org/1999/xlink" xml:space="preserve"	x="0px" y="0px" width="24px" height="24px">	<g>		<g>			<g>				<path d="M 24 47 C 11.3174 47 1 36.6824 1 24.0005 C 1 11.3186 11.3174 1 24 1 C 36.6826 1 47 11.3186 47 24.0005 C 47 36.6824 36.6826 47 24 47 ZM 24 3 C 12.4209 3 3 12.4202 3 24.0005 C 3 35.5808 12.4209 45 24 45 C 35.5791 45 45 35.5808 45 24.0005 C 45 12.4202 35.5791 3 24 3 Z" fill="#231f20"/>			</g>			<g>				<path d="M 15.5137 33.487 C 15.2578 33.487 15.002 33.3894 14.8066 33.194 C 14.416 32.8034 14.416 32.1706 14.8066 31.7799 L 31.7773 14.8089 C 32.168 14.4183 32.8008 14.4183 33.1914 14.8089 C 33.582 15.1995 33.582 15.8323 33.1914 16.223 L 16.2207 33.194 C 16.0254 33.3894 15.7696 33.487 15.5137 33.487 Z" />			</g>			<g>				<path d="M 32.4844 33.487 C 32.2285 33.487 31.9727 33.3894 31.7773 33.194 L 14.8066 16.223 C 14.416 15.8323 14.416 15.1995 14.8066 14.8089 C 15.1973 14.4183 15.8301 14.4183 16.2207 14.8089 L 33.1914 31.7799 C 33.582 32.1706 33.582 32.8034 33.1914 33.194 C 32.9961 33.3894 32.7402 33.487 32.4844 33.487 Z" />			</g>		</g>	</g></svg>