<?xml version="1.0" standalone="no"?><!-- Generator: Adobe Fireworks CS6, Export SVG Extension by Aaron Beall (http://fireworks.abeall.com) . Version: 0.6.1  --><!DOCTYPE svg PUBLIC "-//W3C//DTD SVG 1.1//EN" "http://www.w3.org/Graphics/SVG/1.1/DTD/svg11.dtd"><svg id="svg-scalebar" viewBox="0 0 48 48" version="1.1"	xmlns="http://www.w3.org/2000/svg" xmlns:xlink="http://www.w3.org/1999/xlink" xml:space="preserve"	x="0px" y="0px" width="24px" height="24px">	<g>		<g>			<g>				<path d="M 24.0477 28.0049 C 23.7919 28.0049 23.5361 27.9072 23.3409 27.7119 L 7.3438 11.7119 C 7.0577 11.4258 6.9723 10.9961 7.1271 10.6221 C 7.2819 10.248 7.6465 10.0049 8.0507 10.0049 L 40.0448 10.0049 C 40.449 10.0049 40.8137 10.248 40.9684 10.6221 C 41.1232 10.9961 41.0378 11.4258 40.7517 11.7119 L 24.7546 27.7119 C 24.5594 27.9072 24.3036 28.0049 24.0477 28.0049 ZM 10.4644 12.0049 L 24.0477 25.5908 L 37.6312 12.0049 L 10.4644 12.0049 Z" />			</g>			<g>				<path d="M 47.0435 38.0049 L 1.0521 38.0049 C 0.4999 38.0049 0.0522 37.5576 0.0522 37.0049 C 0.0522 36.4521 0.4999 36.0049 1.0521 36.0049 L 47.0435 36.0049 C 47.5956 36.0049 48.0433 36.4521 48.0433 37.0049 C 48.0433 37.5576 47.5956 38.0049 47.0435 38.0049 Z" />			</g>		</g>	</g></svg>