<?xml version="1.0" standalone="no"?><!-- Generator: Adobe Fireworks CS6, Export SVG Extension by Aaron Beall (http://fireworks.abeall.com) . Version: 0.6.1  --><!DOCTYPE svg PUBLIC "-//W3C//DTD SVG 1.1//EN" "http://www.w3.org/Graphics/SVG/1.1/DTD/svg11.dtd"><svg id="svg-select-rect" viewBox="0 0 24 24" version="1.1"	xmlns="http://www.w3.org/2000/svg" xmlns:xlink="http://www.w3.org/1999/xlink" xml:space="preserve"	x="0px" y="0px" width="24px" height="24px">	<g >		<g>			<g>				<path d="M 23.3039 23.9636 L 17.8026 18.4637 L 18.5098 17.7567 L 24.0111 23.2566 L 23.3039 23.9636 Z" fill="#59466e"/>			</g>			<g>				<path d="M 16.6466 22.9006 L 12.2354 12.1914 L 22.9483 16.601 L 18.5371 18.4911 L 16.6466 22.9006 ZM 14.0747 14.0297 L 16.6651 20.3192 L 17.7753 17.7294 L 20.3657 16.6195 L 14.0747 14.0297 Z" fill="#59466e"/>			</g>			<g>				<path d="M 1.1522 5.6105 L 0.152 5.6105 L 0.152 3.6105 L 1.1522 3.6105 L 1.1522 5.6105 Z"  fill="#59466e"/>			</g>			<g>				<path d="M 1.1522 9.6104 L 0.152 9.6104 L 0.152 7.6104 L 1.1522 7.6104 L 1.1522 9.6104 Z"  fill="#59466e"/>			</g>			<g>				<path d="M 1.1522 13.6103 L 0.152 13.6103 L 0.152 11.6104 L 1.1522 11.6104 L 1.1522 13.6103 Z" fill="#59466e"/>			</g>			<g>				<path d="M 17.156 5.6105 L 16.1557 5.6105 L 16.1557 3.6105 L 17.156 3.6105 L 17.156 5.6105 Z" fill="#59466e"/>			</g>			<g>				<path d="M 17.156 9.6104 L 16.1557 9.6104 L 16.1557 7.6104 L 17.156 7.6104 L 17.156 9.6104 Z" fill="#59466e"/>			</g>			<g>				<path d="M 1.6523 17.1102 L 0.152 17.1102 L 0.152 15.6103 L 1.1522 15.6103 L 1.1522 16.1102 L 1.6523 16.1102 L 1.6523 17.1102 Z" fill="#59466e" />			</g>			<g>				<path d="M 1.1522 1.6105 L 0.152 1.6105 L 0.152 0.1105 L 1.6523 0.1105 L 1.6523 1.1105 L 1.1522 1.1105 L 1.1522 1.6105 Z" fill="#59466e"/>			</g>			<g>				<path d="M 5.6533 1.1105 L 3.6528 1.1105 L 3.6528 0.1105 L 5.6533 0.1105 L 5.6533 1.1105 Z" fill="#59466e"/>			</g>			<g>				<path d="M 9.6542 1.1105 L 7.6537 1.1105 L 7.6537 0.1105 L 9.6542 0.1105 L 9.6542 1.1105 Z"  fill="#59466e"/>			</g>			<g>				<path d="M 5.6533 17.1102 L 3.6528 17.1102 L 3.6528 16.1102 L 5.6533 16.1102 L 5.6533 17.1102 Z" fill="#59466e"/>			</g>			<g>				<path d="M 9.6542 17.1102 L 7.6537 17.1102 L 7.6537 16.1102 L 9.6542 16.1102 L 9.6542 17.1102 Z" fill="#59466e" />			</g>			<g>				<path d="M 13.6552 1.1105 L 11.6547 1.1105 L 11.6547 0.1105 L 13.6552 0.1105 L 13.6552 1.1105 Z" fill="#59466e" />			</g>			<g>				<path d="M 17.156 1.6105 L 16.1557 1.6105 L 16.1557 1.1105 L 15.6556 1.1105 L 15.6556 0.1105 L 17.156 0.1105 L 17.156 1.6105 Z" fill="#59466e" />			</g>		</g>	</g></svg>