<?xml version="1.0" encoding="UTF-8" standalone="no"?>
<!-- Created with Inkscape (http://www.inkscape.org/) -->
<svg id="svg31573" xmlns:rdf="http://www.w3.org/1999/02/22-rdf-syntax-ns#" xmlns="http://www.w3.org/2000/svg" height="24" width="24" version="1.1" xmlns:cc="http://creativecommons.org/ns#" xmlns:dc="http://purl.org/dc/elements/1.1/">
 <metadata id="metadata31578">
  <rdf:RDF>
   <cc:Work rdf:about="">
    <dc:format>image/svg+xml</dc:format>
    <dc:type rdf:resource="http://purl.org/dc/dcmitype/StillImage"/>
    <dc:title/>
   </cc:Work>
  </rdf:RDF>
 </metadata>
 <g id="layer1" transform="translate(0,-1028.3622)">
  <g id="g31614" fill-rule="nonzero" fill="#231f20" transform="matrix(0.3254149,0,0,0.3254149,-110.03059,867.1236)">
   <path id="path4800" d="m357.96,529.24-19.84,0,0-2.5668c0-2.2869,1.7274-4.5859,3.9412-5.2062l7.3108-1.9464v-3.3572h2.5059v5.2792l-9.1598,2.4329c-1.1069,0.30412-2.0922,1.63-2.0922,2.7978v0.0613h17.334v2.5059"/>
   <path id="path4802" d="m371.88,529.24-17.067,0,0-2.5059,14.561,0c0-1.2895-0.83938-2.5789-1.849-2.8708l-9.403-2.4208v-5.1698h2.5059v3.2356l7.5418,1.9341c2.1288,0.62038,3.7101,2.883,3.7101,5.2915v2.5059"/>
   <path id="path4804" d="m355.14,497.99c-4.5251,0-8.2109,4.0629-8.2109,9.0624,0,4.9874,3.6858,9.0624,8.2109,9.0624s8.1988-4.075,8.1988-9.0624c0-4.9995-3.6736-9.0624-8.1988-9.0624zm0,20.618c-5.8996,0-10.717-5.182-10.717-11.556s4.8171-11.568,10.717-11.568c5.8996,0,10.692,5.1941,10.692,11.568,0,6.3741-4.7928,11.556-10.692,11.556"/>
   <path id="path4806" d="m361.53,507.5c-0.35275,0-0.72988-0.025-1.0826-0.0975-1.5935-0.219-2.9681-0.9245-3.9534-2.0071-3.5641,2.6031-8.588,2.4936-11.325,0.54737l1.4476-2.0315c1.9462,1.3746,6.4105,1.5814,9.2084-1.2285,0.29188-0.26762,0.68113-0.4015,1.0704-0.35275,0.4015,0.0613,0.72987,0.304,0.91238,0.65675,0.7785,1.4355,2.2018,1.8369,2.9924,1.9585,1.2651,0.1825,2.3842-0.15812,2.81-0.58387l1.7638,1.7639c-0.87575,0.86363-2.2869,1.3745-3.8439,1.3745"/>
   <path id="path4808" d="m397.96,529.24-19.84,0,0-2.5668c0-2.2869,1.7272-4.5859,3.9411-5.2062l7.3108-1.9464v-3.3816h2.5059v5.3036l-9.1475,2.4329c-1.1191,0.30412-2.1045,1.63-2.1045,2.7978v0.0613h17.334v2.5059"/>
   <path id="path4810" d="m411.88,529.24-17.066,0,0-2.5059,14.573,0c0-1.2895-0.8515-2.5789-1.8611-2.8708l-9.3909-2.4208v-5.182h2.4938v3.2479l7.554,1.9341c2.1166,0.62038,3.6979,2.883,3.6979,5.2915v2.5059"/>
   <path id="path4812" d="m395.14,497.99c-4.5251,0-8.2109,4.0629-8.2109,9.0624,0,4.9874,3.6858,9.0624,8.2109,9.0624s8.1988-4.075,8.1988-9.0624c0-4.9995-3.6736-9.0624-8.1988-9.0624zm0,20.618c-5.8996,0-10.717-5.182-10.717-11.556s4.8171-11.568,10.717-11.568c5.8996,0,10.705,5.1941,10.705,11.568,0,6.3741-4.805,11.556-10.705,11.556"/>
   <path id="path4814" d="m401.52,507.5c-0.35275,0-0.72988-0.025-1.0826-0.0975-1.5935-0.219-2.9681-0.9245-3.9534-2.0071-3.5641,2.6031-8.588,2.4936-11.325,0.54737l1.4476-2.0315c1.9584,1.3746,6.4105,1.5814,9.2084-1.2285,0.29188-0.26762,0.68113-0.4015,1.0704-0.35275,0.4015,0.0613,0.742,0.304,0.9245,0.65675,0.76637,1.4355,2.2018,1.8369,2.9802,1.9585,1.2651,0.1825,2.3842-0.15812,2.8221-0.58387l1.7639,1.7639c-0.87588,0.86363-2.2991,1.3745-3.8561,1.3745"/>
   <path id="path4816" d="m375.96,569.24-18.599,0,0-2.8221c0-2.2991,1.7395-4.586,3.9412-5.2306l7.1039-2.0194v-3.4546h2.4938v5.3401l-8.9042,2.5302c-1.1435,0.32837-2.1288,1.6542-2.1288,2.8342v0.31625h16.093v2.5059"/>
   <path id="path4818" d="m391.39,569.24-18.587,0,0-2.5059,16.081,0,0-0.31625c0-1.18-0.9975-2.5059-2.1166-2.8342l-8.9164-2.5302v-5.3401h2.4936v3.4546l7.1039,2.0194c2.2018,0.64463,3.9412,2.9315,3.9412,5.2306v2.8221"/>
   <path id="path4820" d="m374.37,537.71c-4.5251,0-8.2109,4.0629-8.2109,9.0624s3.6858,9.0624,8.2109,9.0624,8.1986-4.0629,8.1986-9.0624-3.6735-9.0624-8.1986-9.0624zm0,20.631c-5.8997,0-10.717-5.182-10.717-11.568,0-6.374,4.817-11.556,10.717-11.556,5.8996,0,10.704,5.182,10.704,11.556,0,6.3862-4.8049,11.568-10.704,11.568"/>
   <path id="path4822" d="m380.63,547.17c-0.35275,0-0.7055-0.0362-1.0461-0.085-1.5449-0.21887-2.8829-0.91225-3.8439-1.9584-3.5641,2.6031-8.6001,2.4815-11.337,0.54737l1.4475-2.0314c1.9585,1.3866,6.4106,1.5812,9.2084-1.2165,0.292-0.29188,0.68125-0.41363,1.0826-0.36488,0.38925,0.0612,0.72987,0.30413,0.91237,0.64463,0.75412,1.4111,2.1288,1.8004,2.8829,1.9099,1.2772,0.18238,2.4208-0.17037,2.8708-0.62037l1.7639,1.7638c-0.888,0.90012-2.3599,1.4111-3.9412,1.4111"/>
   <path id="path4824" d="m357.04,542.44c-0.32837,0-0.64475-0.12125-0.888-0.36487l-7.8702-7.8702c-0.49875-0.48663-0.49875-1.2895,0-1.776,0.4865-0.48663,1.265-0.48663,1.7516,0l7.8946,7.8824c0.4865,0.48663,0.4865,1.2772,0,1.7639-0.2555,0.24325-0.57175,0.36487-0.888,0.36487"/>
   <path id="path4826" d="m391.72,542.44c-0.32849,0-0.64474-0.12125-0.88799-0.36487-0.49876-0.48663-0.49876-1.2772,0-1.7639l7.8824-7.8824c0.48662-0.48663,1.2772-0.48663,1.7639,0,0.48662,0.4865,0.48662,1.2894,0,1.776l-7.8825,7.8702c-0.24325,0.24325-0.57163,0.36487-0.87576,0.36487"/>
  </g>
 </g>
</svg>
