<?xml version="1.0" encoding="UTF-8" standalone="no"?>
<!-- Created with Inkscape (http://www.inkscape.org/) -->
<svg id="svg31700" xmlns:rdf="http://www.w3.org/1999/02/22-rdf-syntax-ns#" xmlns="http://www.w3.org/2000/svg" height="24" width="24" version="1.1" xmlns:cc="http://creativecommons.org/ns#" xmlns:dc="http://purl.org/dc/elements/1.1/">
 <metadata id="metadata31705">
  <rdf:RDF>
   <cc:Work rdf:about="">
    <dc:format>image/svg+xml</dc:format>
    <dc:type rdf:resource="http://purl.org/dc/dcmitype/StillImage"/>
    <dc:title/>
   </cc:Work>
  </rdf:RDF>
 </metadata>
 <g id="layer1" transform="translate(0,-1028.3622)">
  <g id="g31719" fill-rule="nonzero" fill="#231f20" transform="matrix(0.38397884,0,0,0.3622156,-32.980379,793.7174)">
   <path id="path4600" d="m148.39,714.06-62.503,0,0-6.2525c0-4.5616,2.8557-8.6366,7.1084-10.157l15.395-5.7172v-7.0431h2.4994v8.7826l-17.044,6.3255c-3.2691,1.1678-5.4548,4.3061-5.4548,7.8094v3.7466h57.5v-3.7466c0-3.4302-2.2856-6.6416-5.5594-7.7972l-16.944-6.3376v-9.3908h2.5041v7.6512l15.3,5.7172c4.3003,1.5449,7.1988,5.6199,7.1988,10.157v6.2525"/>
   <path id="path4602" d="m116.7,650.31c-8.0018,0-14.512,7.919-14.512,17.662,0,9.7315,6.5098,17.663,14.512,17.663,8.0018,0,14.512-7.9311,14.512-17.663,0-9.7435-6.5098-17.662-14.512-17.662zm0,37.831c-9.3798,0-17.011-9.0624-17.011-20.168,0-11.13,7.6313-20.168,17.011-20.168,9.3798,0,17.011,9.0381,17.011,20.168,0,11.106-7.6312,20.168-17.011,20.168"/>
   <path id="path4604" d="m128.27,667.91c-3.7728,0-6.7236-1.7152-9.223-5.3401-2.5707,2.9072-7.4079,5.0725-11.808,5.0725-2.4614,0-4.5854-0.51087-6.6809-1.6058l1.1594-2.2139c1.7249,0.90012,3.4782,1.3259,5.5215,1.3259,4.2289,0,9.2562-2.5422,10.758-5.413l1.0596-2.0315,1.1357,1.995c2.7749,4.8414,5.7068,6.3862,10.449,5.4739,0.40871-0.085,0.765-0.085,1.0787-0.085,0.17102-0.0238,0.34206-0.0238,0.52743-0.0362l0.2945,2.4815c-0.27552,0.0362-0.53218,0.0362-0.79347,0.0487-0.20436,0-0.4086-0.0125-0.63194,0.0362-0.99784,0.1825-1.9435,0.292-2.8463,0.292"/>
  </g>
 </g>
</svg>
