<?xml version="1.0" encoding="UTF-8" standalone="no"?>
<!-- Created with Inkscape (http://www.inkscape.org/) -->
<svg id="svg31797" xmlns:rdf="http://www.w3.org/1999/02/22-rdf-syntax-ns#" xmlns="http://www.w3.org/2000/svg" height="24" width="24" version="1.1" xmlns:cc="http://creativecommons.org/ns#" xmlns:dc="http://purl.org/dc/elements/1.1/">
 <metadata id="metadata31802">
  <rdf:RDF>
   <cc:Work rdf:about="">
    <dc:format>image/svg+xml</dc:format>
    <dc:type rdf:resource="http://purl.org/dc/dcmitype/StillImage"/>
    <dc:title/>
   </cc:Work>
  </rdf:RDF>
 </metadata>
 <g id="layer1" transform="translate(0,-1028.3622)">
  <g id="g31824" fill-rule="nonzero" fill="#231f20" transform="matrix(0.31999199,0,0,0.31997867,-150.73878,917.55733)">
   <path id="path4670" d="m518.23,394.99-9.6548-2.7735,0-9.1962,2.4985,0,0,7.3108,7.8447,2.2504-0.68849,2.4086"/>
   <path id="path4672" d="m506.07,416.28-35.001,0,0-10.072c0-4.5129,2.8562-8.5636,7.1039-10.084l15.396-5.7172v-7.2499h2.4985v8.9894l-17.04,6.3254c-3.2685,1.18-5.4593,4.2819-5.4593,7.7365v7.5784h32.502v2.4936"/>
   <path id="path4674" d="m502.23,348.79c-7.998,0-14.507,7.919-14.507,17.662,0,9.7315,6.5091,17.663,14.507,17.663,8.0017,0,14.511-7.9311,14.511-17.663,0-9.7435-6.5091-17.662-14.511-17.662zm0,37.819c-9.3799,0-17.012-9.0502-17.012-20.156,0-11.13,7.6319-20.168,17.012-20.168,9.3847,0,17.011,9.0381,17.011,20.168,0,11.106-7.6258,20.156-17.011,20.156"/>
   <path id="path4676" d="m513.81,366.38c-3.777,0-6.7281-1.7152-9.2278-5.3401-2.5654,2.9194-7.4032,5.0846-11.808,5.0846-2.456,0-4.5798-0.51087-6.6806-1.6179l1.1592-2.2018c1.7298,0.888,3.4826,1.3138,5.5214,1.3138,4.2295,0,9.2619-2.5301,10.763-5.4131l1.0595-2.0192,1.1362,1.9828c2.7747,4.8536,5.7014,6.3862,10.448,5.474,0.41359-0.085,0.75662-0.085,1.0607-0.085,0.16544-0.0125,0.33695-0.0125,0.51699-0.025l0.29924,2.4815c-0.27978,0.0362-0.53158,0.0362-0.78338,0.0487-0.1995,0-0.39412-0.0125-0.62281,0.0362-0.99747,0.1825-1.9426,0.27988-2.8416,0.27988"/>
   <path id="path4678" d="m518.41,409.47-2.8647,8.6002,8.6002-2.883,18.907-18.903-5.7306-5.7294-18.912,18.915zm-4.8414,11.824c-0.32358,0-0.64107-0.13387-0.88435-0.365-0.33208-0.3405-0.45129-0.83925-0.29924-1.2894l3.749-11.252c0.062-0.18238,0.16665-0.35275,0.29925-0.4865l20.005-19.998c0.48413-0.4865,1.2772-0.4865,1.7675,0l7.498,7.4932c0.48901,0.4865,0.48901,1.2772,0,1.776l-20,19.998c-0.13745,0.13388-0.3041,0.24338-0.489,0.30413l-11.247,3.7466c-0.13258,0.0362-0.2664,0.0725-0.39898,0.0725"/>
   <path id="path4680" d="m537.69,403.42-7.5029-7.4931,1.7675-1.776,7.5029,7.4931-1.7675,1.776"/>
   <path id="path4682" d="m524.82,417.53c-0.3187,0-0.64105-0.12125-0.88434-0.365l-7.5029-7.4931c-0.48413-0.49875-0.48413-1.2895,0-1.776,0.49022-0.48663,1.2833-0.48663,1.7687,0l7.5017,7.5054c0.49023,0.4865,0.49023,1.265,0,1.7638-0.24206,0.24338-0.56442,0.365-0.88312,0.365"/>
  </g>
 </g>
</svg>
