<?xml version="1.0" standalone="no"?><!-- Generator: Adobe Fireworks CS6, Export SVG Extension by Aaron Beall (http://fireworks.abeall.com) . Version: 0.6.1  --><!DOCTYPE svg PUBLIC "-//W3C//DTD SVG 1.1//EN" "http://www.w3.org/Graphics/SVG/1.1/DTD/svg11.dtd"><svg id="svg-share" viewBox="0 0 24 24" version="1.1"	xmlns="http://www.w3.org/2000/svg" xmlns:xlink="http://www.w3.org/1999/xlink" xml:space="preserve"	x="0px" y="0px" width="24px" height="24px">	<g>		<g>			<g>				<path d="M 4.5 16.5001 C 2.0186 16.5001 0 14.4815 0 12 C 0 9.5185 2.0186 7.4999 4.5 7.4999 C 6.2114 7.4999 7.7525 8.4535 8.5215 9.9882 L 7.6279 10.4365 C 7.0293 9.2421 5.8306 8.4999 4.5 8.4999 C 2.5703 8.4999 1 10.0703 1 12 C 1 13.9297 2.5703 15.5001 4.5 15.5001 C 5.8306 15.5001 7.0293 14.7579 7.6274 13.5625 L 8.522 14.0113 C 7.7529 15.5465 6.2114 16.5001 4.5 16.5001 Z" />			</g>			<g>				<path d="M 19.5 8.9999 L 19.5 7.9999 C 21.4297 7.9999 23 6.4296 23 4.4998 C 23 2.5704 21.4297 1 19.5 1 C 17.5703 1 16 2.5704 16 4.4998 C 16 5.0438 16.125 5.5697 16.3721 6.0634 L 15.4776 6.5106 C 15.1606 5.8768 15 5.2001 15 4.4998 C 15 2.0186 17.0186 0 19.5 0 C 21.9815 0 24 2.0186 24 4.4998 C 24 6.9813 21.9815 8.9999 19.5 8.9999 Z" />			</g>			<g>				<path d="M 19.5 24 C 17.9302 24 16.5005 23.2021 15.6753 21.8662 C 14.8491 20.5282 14.7749 18.8915 15.4776 17.4889 L 16.3721 17.9354 C 15.8257 19.0272 15.8833 20.2997 16.5264 21.3408 C 17.168 22.3799 18.2798 23 19.5 23 C 21.4297 23 23 21.4296 23 19.4999 C 23 17.5702 21.4297 16.0001 19.5 16.0001 L 19.5 15.0001 C 21.9815 15.0001 24 17.0187 24 19.4999 C 24 21.9814 21.9815 24 19.5 24 Z" />			</g>			<g>				<path d="M 16.148 18.3827 L 7.4038 14.0108 L 7.6274 13.5625 C 7.8745 13.0698 8 12.544 8 12 C 8 11.456 7.8745 10.9302 7.6274 10.4355 L 7.4038 9.9887 L 16.148 5.6171 L 16.3716 6.0624 C 16.9707 7.2577 18.1694 7.9999 19.5 7.9999 L 19.5 8.9999 C 17.9566 8.9999 16.5513 8.224 15.7261 6.9457 L 8.7217 10.4482 C 8.9067 10.9458 9 11.4658 9 12 C 9 12.5342 8.9067 13.0542 8.7217 13.5518 L 15.7261 17.0538 C 16.5513 15.7755 17.9566 15.0001 19.5 15.0001 L 19.5 16.0001 C 18.1694 16.0001 16.9707 16.7423 16.3716 17.9364 L 16.148 18.3827 Z" />			</g>		</g>	</g></svg>