<?xml version="1.0" standalone="no"?><!-- Generator: Adobe Fireworks CS6, Export SVG Extension by Aaron Beall (http://fireworks.abeall.com) . Version: 0.6.1  --><!DOCTYPE svg PUBLIC "-//W3C//DTD SVG 1.1//EN" "http://www.w3.org/Graphics/SVG/1.1/DTD/svg11.dtd"><svg id="svg-show" viewBox="0 0 48 48" version="1.1"	xmlns="http://www.w3.org/2000/svg" xmlns:xlink="http://www.w3.org/1999/xlink" xml:space="preserve"	x="0px" y="0px" width="24px" height="24px">	<g>		<g>			<g>				<path d="M 23.6013 38.0121 C 10.5671 38.0121 0.2546 25.1796 -0.1779 24.6332 C -0.4665 24.2689 -0.4665 23.7552 -0.1779 23.3915 C 0.2546 22.8451 10.5671 10.0121 23.6013 10.0121 C 36.636 10.0121 46.9481 22.8451 47.3806 23.3915 C 47.6691 23.7552 47.6691 24.2689 47.3806 24.6332 C 46.9481 25.1796 36.636 38.0121 23.6013 38.0121 ZM 1.9149 24.0121 C 4.1357 26.5541 13.1091 36.0121 23.6013 36.0121 C 34.0935 36.0121 43.0669 26.5541 45.2877 24.0121 C 43.0669 21.4706 34.0935 12.0121 23.6013 12.0121 C 13.1091 12.0121 4.1357 21.4706 1.9149 24.0121 Z" />			</g>			<g>				<path d="M 23.6013 33.0121 C 18.6398 33.0121 14.603 28.9745 14.603 24.0121 C 14.603 19.0497 18.6398 15.0121 23.6013 15.0121 C 28.5628 15.0121 32.5996 19.0497 32.5996 24.0121 C 32.5996 28.9745 28.5628 33.0121 23.6013 33.0121 ZM 23.6013 17.0121 C 19.7422 17.0121 16.6026 20.1522 16.6026 24.0121 C 16.6026 27.8724 19.7422 31.0121 23.6013 31.0121 C 27.4604 31.0121 30.6 27.8724 30.6 24.0121 C 30.6 20.1522 27.4604 17.0121 23.6013 17.0121 Z" />			</g>		</g>	</g></svg>