<?xml version="1.0" standalone="no"?><!-- Generator: Adobe Fireworks CS6, Export SVG Extension by Aaron Beall (http://fireworks.abeall.com) . Version: 0.6.1  --><!DOCTYPE svg PUBLIC "-//W3C//DTD SVG 1.1//EN" "http://www.w3.org/Graphics/SVG/1.1/DTD/svg11.dtd"><svg id="Untitled-Page%201" viewBox="0 0 48 48" style="background-color:#ffffff00" version="1.1"	xmlns="http://www.w3.org/2000/svg" xmlns:xlink="http://www.w3.org/1999/xlink" xml:space="preserve"	x="0px" y="0px" width="48px" height="48px">	<defs>		<!-- Library -->		<symbol id="transfer" overflow="visible">			<g id="Layer%2012">				<g>					<g>						<path d="M -4.9335 24.0039 C -5.4856 24.0039 -5.9333 23.5566 -5.9333 23.0039 L -5.9333 -4.9961 C -5.9333 -5.5488 -5.4856 -5.9961 -4.9335 -5.9961 C -4.3813 -5.9961 -3.9337 -5.5488 -3.9337 -4.9961 L -3.9337 23.0039 C -3.9337 23.5566 -4.3813 24.0039 -4.9335 24.0039 Z" fill="#231f20"/>					</g>					<g>						<path d="M 5.0647 6.0039 C 4.5125 6.0039 4.0649 5.5566 4.0649 5.0039 L 4.0649 -22.9961 C 4.0649 -23.5488 4.5125 -23.9961 5.0647 -23.9961 C 5.6168 -23.9961 6.0645 -23.5488 6.0645 -22.9961 L 6.0645 5.0039 C 6.0645 5.5566 5.6168 6.0039 5.0647 6.0039 Z" fill="#231f20"/>					</g>					<g>						<path d="M -4.9335 24.0039 C -5.1893 24.0039 -5.4451 23.9063 -5.6404 23.7109 L -13.6389 15.7109 C -14.0294 15.3203 -14.0294 14.6875 -13.6389 14.2969 C -13.2483 13.9063 -12.6156 13.9063 -12.2251 14.2969 L -4.9335 21.5898 L 2.3582 14.2969 C 2.7487 13.9063 3.3814 13.9063 3.772 14.2969 C 4.1625 14.6875 4.1625 15.3203 3.772 15.7109 L -4.2266 23.7109 C -4.4218 23.9063 -4.6777 24.0039 -4.9335 24.0039 Z" fill="#231f20"/>					</g>					<g>						<path d="M 13.0632 -13.9961 C 12.8074 -13.9961 12.5516 -14.0938 12.3563 -14.2891 L 5.0647 -21.582 L -2.2269 -14.2891 C -2.6175 -13.8984 -3.2502 -13.8984 -3.6407 -14.2891 C -4.0313 -14.6797 -4.0313 -15.3125 -3.6407 -15.7031 L 4.3578 -23.7031 C 4.7484 -24.0938 5.381 -24.0938 5.7716 -23.7031 L 13.7701 -15.7031 C 14.1606 -15.3125 14.1606 -14.6797 13.7701 -14.2891 C 13.5748 -14.0938 13.319 -13.9961 13.0632 -13.9961 Z" fill="#231f20"/>					</g>				</g>			</g>		</symbol>		<!-- End Library -->	</defs>	<g id="Layer%201">		<use id="transfer2" xlink:href="#transfer" transform="matrix(1, 0, 0, 1, 24, 24)"/>	</g></svg>