<?xml version="1.0" standalone="no"?><!-- Generator: Adobe Fireworks CS6, Export SVG Extension by Aaron Beall (http://fireworks.abeall.com) . Version: 0.6.1  --><!DOCTYPE svg PUBLIC "-//W3C//DTD SVG 1.1//EN" "http://www.w3.org/Graphics/SVG/1.1/DTD/svg11.dtd"><svg id="svg-watch" viewBox="0 0 24 24" version="1.1"	xmlns="http://www.w3.org/2000/svg" xmlns:xlink="http://www.w3.org/1999/xlink" xml:space="preserve"	x="0px" y="0px" width="24px" height="24px">	<g>		<g>			<g>				<path d="M 8.6765 5.9556 L 7.6763 5.9556 L 7.6763 0.5024 C 7.6763 0.2266 7.9 0.0029 8.1764 0.0029 L 15.1781 0.0029 C 15.4545 0.0029 15.6782 0.2266 15.6782 0.5024 L 15.6782 5.9399 L 14.6779 5.9399 L 14.6779 1.0024 L 8.6765 1.0024 L 8.6765 5.9556 Z" />			</g>			<g>				<path d="M 15.1781 24.0024 L 8.1764 24.0024 C 7.9 24.0024 7.6763 23.7788 7.6763 23.5024 L 7.6763 18.0649 L 8.6765 18.0649 L 8.6765 23.0024 L 14.6779 23.0024 L 14.6779 18.0337 L 15.6782 18.0337 L 15.6782 23.5024 C 15.6782 23.7788 15.4545 24.0024 15.1781 24.0024 Z" />			</g>			<g>				<path d="M 11.6772 19.5024 C 7.5405 19.5024 4.1755 16.1382 4.1755 12.0024 C 4.1755 7.8667 7.5405 4.5024 11.6772 4.5024 C 15.814 4.5024 19.179 7.8667 19.179 12.0024 C 19.179 16.1382 15.814 19.5024 11.6772 19.5024 ZM 11.6772 5.5024 C 8.0924 5.5024 5.1757 8.4185 5.1757 12.0024 C 5.1757 15.5864 8.0924 18.5024 11.6772 18.5024 C 15.2621 18.5024 18.1788 15.5864 18.1788 12.0024 C 18.1788 8.4185 15.2621 5.5024 11.6772 5.5024 Z" />			</g>			<g>				<path d="M 14.6779 15.5024 C 14.5627 15.5024 14.4469 15.4634 14.3527 15.3823 L 10.8519 12.3823 C 10.741 12.2866 10.677 12.1479 10.677 12.0024 L 10.677 9.0024 C 10.677 8.7261 10.9007 8.5024 11.1771 8.5024 C 11.4536 8.5024 11.6772 8.7261 11.6772 9.0024 L 11.6772 11.7729 L 15.0032 14.6226 C 15.2132 14.8022 15.2376 15.1187 15.0574 15.3276 C 14.9588 15.4429 14.8186 15.5024 14.6779 15.5024 Z" />			</g>		</g>	</g></svg>