<?xml version="1.0" standalone="no"?><!-- Generator: Adobe Fireworks CS6, Export SVG Extension by Aaron Beall (http://fireworks.abeall.com) . Version: 0.6.1  --><!DOCTYPE svg PUBLIC "-//W3C//DTD SVG 1.1//EN" "http://www.w3.org/Graphics/SVG/1.1/DTD/svg11.dtd"><svg viewBox="0 0 24 24" version="1.1"	xmlns="http://www.w3.org/2000/svg" xmlns:xlink="http://www.w3.org/1999/xlink" xml:space="preserve"	x="0px" y="0px" width="24px" height="24px">	<g>		<g>			<g>				<path d="M 12.121 23.5166 C 11.8446 23.5166 11.6209 23.293 11.6209 23.0166 L 11.6209 1.0166 C 11.6209 0.7402 11.8446 0.5166 12.121 0.5166 C 12.3974 0.5166 12.6211 0.7402 12.6211 1.0166 L 12.6211 23.0166 C 12.6211 23.293 12.3974 23.5166 12.121 23.5166 Z"/>			</g>			<g>				<path d="M 23.1236 12.5166 L 1.1184 12.5166 C 0.842 12.5166 0.6183 12.293 0.6183 12.0166 C 0.6183 11.7402 0.842 11.5166 1.1184 11.5166 L 23.1236 11.5166 C 23.4 11.5166 23.6237 11.7402 23.6237 12.0166 C 23.6237 12.293 23.4 12.5166 23.1236 12.5166 Z" />			</g>		</g>	</g></svg>